# xmcd
#
# Track frame offsets: 
#        150
#        18446
#        34080
#        51599
#        74649
#        94684
#        117020
#        130349
#        147893
#        166924
#        182051
#        201225
#        225289
#
# Disc length: 3202 seconds
#
# Revision: 5
# Processed by: cddbd v1.5.2PL0 Copyright (c) Steve Scherf et al.
# Submitted via: ExactAudioCopyFreeDBPlugin 1.0
#
DISCID=b40c800d
DTITLE=Randy Crawford and Joe Sample - Feeling Good
DYEAR=2006
DGENRE=Jazz
TTITLE0=Feeling Good
TTITLE1=End Of The Line
TTITLE2=But Beautiful
TTITLE3=Rio de Janiero Blues
TTITLE4=Lovetown
TTITLE5=See Line Woman
TTITLE6=Tell Me More And More And Then Some
TTITLE7=Everybody's Talking
TTITLE8=When I Need You
TTITLE9=Save Your Love For Me
TTITLE10=Last Night At Danceland
TTITLE11=All Night Long
TTITLE12=Mr. Ugly
EXTD=
EXTT0=
EXTT1=
EXTT2=
EXTT3=
EXTT4=
EXTT5=
EXTT6=
EXTT7=
EXTT8=
EXTT9=
EXTT10=
EXTT11=
EXTT12=
PLAYORDER=
